<svg xmlns="http://www.w3.org/2000/svg" viewBox="-10.00 -15.00 750.00 615.00" width="750" height="615">
  <defs>
    <style>a.cmp{cursor:pointer}a.cmp:hover rect{stroke:#0b5f8a;stroke-width:2.5}a.cmp:focus{outline:none}a.cmp:focus rect{stroke:#0b5f8a;stroke-width:2.5}</style>
    <filter id="shadow" x="-20%" y="-20%" width="140%" height="140%">
      <feDropShadow dx="1" dy="1" stdDeviation="2" flood-opacity="0.15"/>
    </filter>
    <marker id="arrowhead" markerWidth="6" markerHeight="4" refX="3.3" refY="2" orient="auto">
      <polygon points="0 0, 6 2, 0 4" fill="#666"/>
    </marker>
    <marker id="arrowheadScope" markerWidth="6.5" markerHeight="4.5" refX="3.6" refY="2.25" orient="auto">
      <polygon points="0 0, 6.5 2.25, 0 4.5" fill="#666"/>
    </marker>
    <marker id="arrowheadScopeLight" markerWidth="6.5" markerHeight="4.5" refX="3.6" refY="2.25" orient="auto">
      <polygon points="0 0, 6.5 2.25, 0 4.5" fill="#9A9A9A"/>
    </marker>
    <marker id="couplingArrow" markerWidth="7" markerHeight="5" refX="6" refY="2.5" orient="auto" markerUnits="strokeWidth">
      <polygon points="0 0, 7 2.5, 0 5" fill="#666"/>
    </marker>
  </defs>
  
  <!-- Background -->
  <rect x="0.00" y="-5.00" width="730.00" height="595.00" rx="8" fill="white" stroke="#ccc" stroke-width="1.5"/>
  
  <!-- Title intentionally omitted -->
  <rect x="20.00" y="15.00" width="690.00" height="390.00" rx="8" fill="none" stroke="#999" stroke-width="2" stroke-dasharray="7 7"/>
  <rect x="20.00" y="475.00" width="690.00" height="95.00" rx="8" fill="none" stroke="#999" stroke-width="2" stroke-dasharray="7 7"/>
  <!-- Coupling Circle -->
  <g fill="none" stroke="#666" stroke-width="7.0" stroke-linecap="round">
    <path d="M 117.96 140.27 A 165.00 165.00 0 0 1 417.04 140.27"/>
    <path d="M 131.55 146.61 A 150.00 150.00 0 0 1 403.45 146.61"/>
    <path d="M 350.00 67.11 A 165.00 165.00 0 0 1 384.17 93.33" marker-end="url(#couplingArrow)"/>
    <path d="M 192.50 80.10 A 150.00 150.00 0 0 0 161.43 103.93" marker-end="url(#couplingArrow)"/>
  </g>
  <g fill="none" stroke="#666" stroke-width="7.0" stroke-linecap="round">
    <path d="M 417.04 279.73 A 165.00 165.00 0 0 1 117.96 279.73"/>
    <path d="M 402.66 304.64 A 165.00 165.00 0 0 1 362.14 345.16" marker-end="url(#couplingArrow)"/>
    <path d="M 172.86 345.16 A 165.00 165.00 0 0 1 132.34 304.64" marker-end="url(#couplingArrow)"/>
  </g>
  <a class="cmp" href="https://github.com/FESOM/fesom2" target="_blank" rel="noopener">

  <!-- Ocean Component -->
  <g filter="url(#shadow)">
    <rect x="45" y="115" width="150" height="190" rx="8" fill="#5B97D6" stroke="#2F6FA1" stroke-width="2"/>
    <text x="120" y="150" text-anchor="middle" font-family="Arial, sans-serif" font-size="18" font-weight="bold" fill="#333">Ocean</text>
    <text x="120" y="177" text-anchor="middle" font-family="Arial, sans-serif" font-size="18" fill="#333">FESOM 2.7</text>
  <a class="cmp" href="https://github.com/FESOM/fesom2" target="_blank" rel="noopener">
    <rect x="60" y="190" width="120" height="50" rx="6" fill="#2F6FA1"/>
    <text x="120" y="213" text-anchor="middle" font-family="Arial, sans-serif" font-size="13" font-weight="bold" fill="white">Sea ice</text>
    <text x="120" y="233" text-anchor="middle" font-family="Arial, sans-serif" font-size="13" fill="white">FESIM</text>
  </a>
  <a class="cmp" href="https://recom.readthedocs.io/" target="_blank" rel="noopener">
    <rect x="60" y="246" width="120" height="50" rx="6" fill="#2F6FA1"/>
    <text x="120" y="269" text-anchor="middle" font-family="Arial, sans-serif" font-size="13" font-weight="bold" fill="white">Biogeochemistry</text>
    <text x="120" y="289" text-anchor="middle" font-family="Arial, sans-serif" font-size="13" fill="white">RECOM</text>
  </a>
  </g>
  </a>
  <a class="cmp" href="https://confluence.ecmwf.int/display/OIFS" target="_blank" rel="noopener">

  <!-- Atmosphere Component -->
  <g filter="url(#shadow)">
    <rect x="340" y="140" width="200" height="140" rx="8" fill="#E2F4FF" stroke="#6C9CB2" stroke-width="2"/>
    <text x="440" y="175" text-anchor="middle" font-family="Arial, sans-serif" font-size="18" font-weight="bold" fill="#333">Atmosphere</text>
    <text x="440" y="202" text-anchor="middle" font-family="Arial, sans-serif" font-size="18" fill="#333">OpenIFS 48</text>
  <a class="cmp" href="https://confluence.ecmwf.int/display/OIFS" target="_blank" rel="noopener">
    <rect x="355" y="208" width="75" height="50" rx="6" fill="#6C9CB2"/>
    <text x="392" y="231" text-anchor="middle" font-family="Arial, sans-serif" font-size="13" font-weight="bold" fill="white">Waves</text>
    <text x="392" y="251" text-anchor="middle" font-family="Arial, sans-serif" font-size="13" fill="white">WAM</text>
  </a>
  <a class="cmp" href="https://confluence.ecmwf.int/display/OIFS" target="_blank" rel="noopener">
    <rect x="450" y="208" width="75" height="50" rx="6" fill="#6C9CB2"/>
    <text x="487" y="231" text-anchor="middle" font-family="Arial, sans-serif" font-size="13" font-weight="bold" fill="white">Hydrology</text>
    <text x="487" y="251" text-anchor="middle" font-family="Arial, sans-serif" font-size="13" fill="white">H-TESSEL</text>
  </a>
  </g>
  </a>
  <a class="cmp" href="https://oasis.cerfacs.fr/" target="_blank" rel="noopener">

  <!-- Coupler -->
  <g>
    <rect x="210" y="175" width="115" height="70" rx="4" fill="white"/>
    <text x="267" y="203" text-anchor="middle" font-family="Arial, sans-serif" font-size="18" font-weight="bold" fill="#333">Coupler</text>
    <text x="267" y="227" text-anchor="middle" font-family="Arial, sans-serif" font-size="14" fill="#333">OASIS3-MCT5</text>
  </g>
  </a>
  <a class="cmp" href="https://web.nateko.lu.se/lpj-guess/" target="_blank" rel="noopener">

  <!-- LPJ-Guess -->
  <g filter="url(#shadow)">
    <rect x="510" y="40" width="175" height="80" rx="8" fill="#BFE6A8" stroke="#6AA84F" stroke-width="1"/>
    <text x="597" y="68" text-anchor="middle" font-family="Arial, sans-serif" font-size="18" font-weight="bold" fill="#333">Dynamic vegetation</text>
    <text x="597" y="96" text-anchor="middle" font-family="Arial, sans-serif" font-size="18" fill="#333">LPJ-Guess</text>
  </g>
  </a>

  <!-- Atmosphere <-> LPJ-Guess arrows -->
  <line x1="430.0" y1="140" x2="501.82" y2="72.06" stroke="#666" stroke-width="7" stroke-linecap="round" marker-end="url(#arrowhead)"/>
  <line x1="504" y1="90.0" x2="452.20" y2="137.96" stroke="#666" stroke-width="7" stroke-linecap="round" marker-end="url(#arrowhead)"/>

  <!-- IO Server -->
  <g filter="url(#shadow)">
    <rect x="590" y="169" width="95" height="70" rx="8" fill="#F4D03F" stroke="#B8860B" stroke-width="2"/>
    <text x="637" y="197" text-anchor="middle" font-family="Arial, sans-serif" font-size="18" font-weight="bold" fill="#333">IO server</text>
    <text x="637" y="223" text-anchor="middle" font-family="Arial, sans-serif" font-size="18" fill="#333">XIOS3</text>
  </g>
  
  <!-- Arrow to IO Server -->
  <line x1="540" y1="205" x2="582.00" y2="205.00" stroke="#666" stroke-width="7" stroke-linecap="round" marker-end="url(#arrowhead)"/>
  <a class="cmp" href="https://awi-cm3-documentation.readthedocs.io/" target="_blank" rel="noopener">

  <!-- Runoff-Mapper -->
  <g filter="url(#shadow)">
    <rect x="190" y="330" width="155" height="50" rx="6" fill="#F5CBA7" stroke="#D4A574" stroke-width="1"/>
    <text x="267" y="363" text-anchor="middle" font-family="Arial, sans-serif" font-size="18" font-weight="bold" fill="#333">Runoff - Mapper</text>
  </g>
  </a>
  <a class="cmp" href="https://doi.org/10.5194/gmd-2020-159" target="_blank" rel="noopener">

  <!-- Coupler scope arrows -->
  <line x1="354.00" y1="387.00" x2="354.00" y2="472.00" stroke="#9A9A9A" stroke-width="7" stroke-linecap="round" marker-end="url(#arrowheadScopeLight)"/>
  <line x1="376.00" y1="483.00" x2="376.00" y2="396.00" stroke="#9A9A9A" stroke-width="7" stroke-linecap="round" marker-end="url(#arrowheadScopeLight)"/>
  <g>
    <rect x="394.00" y="410.00" width="150.00" height="60.00" rx="4" fill="white"/>
    <text x="469.00" y="436.00" text-anchor="middle" font-family="Arial, sans-serif" font-size="18" font-weight="bold" fill="#333">Coupler</text>
    <text x="469.00" y="464.00" text-anchor="middle" font-family="Arial, sans-serif" font-size="18" fill="#333">SCOPE</text>
  </g>
  </a>
  <a class="cmp" href="https://www.pism.io/" target="_blank" rel="noopener">

  <g>
    <g filter="url(#shadow)">
      <rect x="295.00" y="492.50" width="140.00" height="60.00" rx="8" fill="#E8F0F8" stroke="#9AAEC2" stroke-width="1"/>
      <text x="365.00" y="518.50" text-anchor="middle" font-family="Arial, sans-serif" font-size="18" font-weight="bold" fill="#333">Ice sheet</text>
      <text x="365.00" y="542.50" text-anchor="middle" font-family="Arial, sans-serif" font-size="18" fill="#333">PISM</text>
    </g>
  </g>
  </a>
</svg>